<svg xmlns="http://www.w3.org/2000/svg" xml:space="preserve" style="enable-background:new 0 0 24 24" viewBox="0 0 24 24"><path d="M12.6 23.3h-.2v.4l.1.1.1-.1v-.4zm.3-.2-.2.1v.4l.2.1v-.6c0 .1 0 0 0 0zm-.8 0-.1.6.2-.1v-.4l-.1-.1z" style="fill:none"/><path d="M7 3.8c.4-.3.5-1 .1-1.4-.3-.4-1-.5-1.4-.1-1.1.9-2 2-2.6 3.2-.2.4 0 1 .4 1.3.5.2 1.1 0 1.4-.5.5-1 1.2-1.8 2.1-2.5zm11.3-1.6c-.4-.3-1.1-.3-1.4.1s-.3 1.1.1 1.5c.9.7 1.6 1.6 2.1 2.6.3.4.9.6 1.4.4.5-.3.7-.9.4-1.3-.6-1.3-1.5-2.4-2.6-3.3zM5 10c0-3.9 3.1-7 7-7s7 3.1 7 7v3.8l1.8 3.6c.4.7-.2 1.6-1 1.6H4.2c-.8 0-1.3-.9-1-1.6L5 13.8V10zm4 10h6c0 1.1-.9 2-2 2h-2c-1.1 0-2-.9-2-2z" style="fill-rule:evenodd;clip-rule:evenodd"/></svg>