<?xml version="1.0" encoding="utf-8"?>
<!-- Generator: Adobe Illustrator 27.0.0, SVG Export Plug-In . SVG Version: 6.00 Build 0)  -->
<svg version="1.1" id="Capa_1" xmlns="http://www.w3.org/2000/svg" xmlns:xlink="http://www.w3.org/1999/xlink" x="0px" y="0px"
	 viewBox="0 0 24 24" style="enable-background:new 0 0 24 24;" xml:space="preserve">
<path d="M12,14.1l5.3,5.3c0.6,0.6,1.5,0.6,2.1,0s0.6-1.5,0-2.1L14.1,12l5.3-5.3c0.6-0.6,0.6-1.5,0-2.1s-1.5-0.6-2.1,0
	L12,9.9L6.7,4.6C6.1,4,5.2,4,4.6,4.6S4,6.1,4.6,6.7L9.9,12l-5.3,5.3c-0.6,0.6-0.6,1.5,0,2.1s1.5,0.6,2.1,0C6.7,19.4,12,14.1,12,14.1
	z"/>
</svg>
