<svg xmlns="http://www.w3.org/2000/svg" xml:space="preserve" style="enable-background:new 0 0 24 24" viewBox="0 0 24 24"><path d="M12.6 23.3h-.2v.4l.1.1.1-.1v-.4zm.3-.2-.2.1v.4l.2.1v-.6c0 .1 0 0 0 0zm-.8 0-.1.6.2-.1v-.4l-.1-.1z" style="fill:none"/><path d="M20 14.5c.8 0 1.5.7 1.5 1.5v4c0 1.4-1.1 2.5-2.5 2.5H5c-1.4 0-2.5-1.1-2.5-2.5v-4c0-.8.7-1.5 1.5-1.5s1.5.7 1.5 1.5v3.5h13V16c0-.8.7-1.5 1.5-1.5zm-8-13c.8 0 1.5.7 1.5 1.5v9l1.7-1.7c.6-.6 1.5-.6 2.1 0 .6.6.6 1.5 0 2.1l-4.1 4.1c-.7.7-1.8.7-2.5 0l-4.1-4.1c-.6-.6-.6-1.5 0-2.1.6-.6 1.5-.6 2.1 0l1.7 1.7V3c.1-.8.8-1.5 1.6-1.5z"/></svg>