<svg xmlns="http://www.w3.org/2000/svg" xml:space="preserve" style="enable-background:new 0 0 24 24" viewBox="0 0 24 24"><path d="M12.6 23.3h-.2v.4l.1.1.1-.1v-.4zm.3-.2-.2.1v.4l.2.1v-.6c0 .1 0 0 0 0zm-.8 0-.1.6.2-.1v-.4l-.1-.1z" style="fill:none"/><path d="M2.3 12.9c.8.5 2.3 1.7 4.6 3 2.3 1.4 4.1 2.1 4.9 2.5.7.3 1.4-.2 1.5-.9.1-.5.2-1.4.2-2.7.6.4 1.2.7 1.9 1.1 2.3 1.4 4.1 2.1 4.9 2.5.7.3 1.4-.2 1.5-.9.2-.8.3-2.8.3-5.6 0-2.6-.2-4.6-.3-5.4-.1-.8-.8-1.2-1.5-.9-.8.4-2.6 1.1-4.9 2.5-.7.4-1.3.8-1.9 1.1 0-1.2-.1-2.2-.2-2.7-.1-.8-.8-1.2-1.5-.9-.8.4-2.5 1.1-4.9 2.5s-3.9 2.5-4.6 3c-.6.4-.6 1.4 0 1.8z"/></svg>