<?xml version="1.0" encoding="utf-8"?>
<!-- Generator: Adobe Illustrator 27.0.0, SVG Export Plug-In . SVG Version: 6.00 Build 0)  -->
<svg version="1.1" id="Capa_1" xmlns="http://www.w3.org/2000/svg" xmlns:xlink="http://www.w3.org/1999/xlink" x="0px" y="0px"
	 viewBox="0 0 24 24" style="enable-background:new 0 0 24 24;" xml:space="preserve">
<g id="System" transform="translate(-528.000000, -48.000000)">
	<g id="forbid_circle_fill" transform="translate(528.000000, 48.000000)">
		<path id="形状" d="M12,2c5.5,0,10,4.5,10,10c0,5.5-4.5,10-10,10C6.5,22,2,17.5,2,12C2,6.5,6.5,2,12,2z M14.8,7.8l-7.1,7.1
			c-0.4,0.4-0.4,1,0,1.4c0.4,0.4,1,0.4,1.4,0l7.1-7.1c0.4-0.4,0.4-1,0-1.4C15.9,7.4,15.2,7.4,14.8,7.8z"/>
	</g>
</g>
</svg>
