<svg xmlns="http://www.w3.org/2000/svg" xml:space="preserve" style="enable-background:new 0 0 24 24" viewBox="0 0 24 24"><path d="M12.6 23.3h-.2v.4l.1.1.1-.1v-.4zm.3-.2-.2.1v.4l.2.1v-.6c0 .1 0 0 0 0zm-.8 0-.1.6.2-.1v-.4l-.1-.1z" style="fill:none"/><path d="M18.7 3.2c1.2-.2 2.3.7 2.3 2V17c0 2.2-1.8 4-4 4s-4-1.8-4-4 1.8-4 4-4c.7 0 1.4.2 2 .5V9.2L9 10.8v7.7C9 20.4 7.4 22 5.5 22S2 20.4 2 18.5 3.6 15 5.5 15c.5 0 1 .1 1.5.3V6.8c0-1 .7-1.8 1.7-2l10-1.6zM9 8.8l10-1.7v-2L9 6.8v2z" style="fill-rule:evenodd;clip-rule:evenodd"/></svg>