<svg xmlns="http://www.w3.org/2000/svg" xml:space="preserve" style="enable-background:new 0 0 24 24" viewBox="0 0 24 24"><path d="M4 14.5c.8 0 1.5-.7 1.5-1.5V9c0-.8.7-1.5 1.5-1.5h9.2c0 .5.1.9.1 1.1 0 .3.4.5.7.4.4-.2 1.2-.5 2.2-1.1 1.1-.6 1.8-1.1 2.1-1.4.3-.2.3-.6 0-.8-.3-.2-1.1-.8-2.1-1.4-1.1-.6-1.9-1-2.2-1.1-.3-.1-.7.1-.7.4 0 .2-.1.5-.1.9H7c-2.5 0-4.5 2-4.5 4.5v4c0 .8.7 1.5 1.5 1.5zm16-5c-.8 0-1.5.7-1.5 1.5v4c0 .8-.7 1.5-1.5 1.5H7.8c0-.5-.1-.9-.1-1.1 0-.3-.4-.5-.7-.4-.4.2-1.2.5-2.2 1.1-1.1.6-1.8 1.1-2.1 1.4-.3.2-.3.6 0 .8.3.2 1.1.8 2.1 1.4 1.1.6 1.9 1 2.2 1.1.3.1.7-.1.7-.4 0-.2.1-.5.1-.9H17c2.5 0 4.5-2 4.5-4.5v-4c0-.8-.7-1.5-1.5-1.5z"/></svg>