<svg xmlns="http://www.w3.org/2000/svg" xml:space="preserve" style="enable-background:new 0 0 24 24" viewBox="0 0 24 24"><path d="M19.1 15.9c-.8-.5-1.5-.8-1.8-.9-.2-.1-.5.1-.5.3 0 .2-.1.6-.1 1-1.2 0-2.2-.7-2.7-1.7L12.6 12l1.3-2.6c.5-1 1.5-1.7 2.7-1.7 0 .5.1.9.1 1 .1.3.3.4.6.3.3-.1.9-.4 1.8-.9s1.4-.9 1.7-1.1c.2-.2.2-.5 0-.7-.3-.2-.8-.6-1.7-1.1-.8-.5-1.5-.8-1.8-.9-.2-.1-.5.1-.5.3 0 .2-.1.5-.1.9-1.9 0-3.6 1.1-4.5 2.8l-.7 1.3L10.2 7c-1-1.6-2.7-2.7-4.6-2.7H4.1c-.6 0-1 .4-1 1s.4 1 1 1h1.5c1.2 0 2.2.7 2.7 1.7l2 4-2 4c-.5 1-1.5 1.7-2.7 1.7H4.1c-.6 0-1 .4-1 1s.4 1 1 1h1.5c1.9 0 3.6-1.1 4.5-2.8l1.3-2.6.7 1.3c.9 1.7 2.6 2.8 4.5 2.8 0 .4.1.8.1.9 0 .3.3.4.5.3.3-.1.9-.4 1.8-.9.8-.5 1.4-.9 1.7-1.1.2-.2.2-.5 0-.7-.2-.1-.8-.5-1.6-1z"/></svg>