<svg xmlns="http://www.w3.org/2000/svg" xml:space="preserve" style="enable-background:new 0 0 24 24" viewBox="0 0 24 24"><path d="M12.6 23.3h-.2v.4l.1.1.1-.1v-.4zm.3-.2-.2.1v.4l.2.1v-.6c0 .1 0 0 0 0zm-.8 0-.1.6.2-.1v-.4l-.1-.1z" style="fill:none"/><path d="M20 3.5c.8 0 1.5.7 1.5 1.5v14c0 .8-.7 1.5-1.5 1.5s-1.5-.7-1.5-1.5V5c0-.8.7-1.5 1.5-1.5zm-10 3c.8 0 1.5.7 1.5 1.5v11c0 .8-.7 1.5-1.5 1.5s-1.5-.7-1.5-1.5V8c0-.8.7-1.5 1.5-1.5zm5 3c.8 0 1.5.7 1.5 1.5v8c0 .8-.7 1.5-1.5 1.5s-1.5-.7-1.5-1.5v-8c0-.8.7-1.5 1.5-1.5zm-10 3c.8 0 1.5.7 1.5 1.5v5c0 .8-.7 1.5-1.5 1.5s-1.5-.7-1.5-1.5v-5c0-.8.7-1.5 1.5-1.5z" style="fill-rule:evenodd;clip-rule:evenodd"/></svg>