<svg xmlns="http://www.w3.org/2000/svg" xml:space="preserve" style="enable-background:new 0 0 24 24" viewBox="0 0 24 24"><path d="M4.6 8 15 18.4v1.4c0 .9-1 1.4-1.7.9L6.7 16H4c-1.1 0-2-.9-2-2v-4c0-1.1.9-2 2-2h.6zM15 4.2v9.4l1.1 1.1c-.2-.4-.1-.8.1-1.1l.1-.1c.4-.4.7-.9.7-1.5 0-.5-.2-1-.5-1.4l-.1-.1c-.4-.4-.4-1-.1-1.4.4-.4 1-.4 1.4-.1.8.7 1.3 1.8 1.3 3s-.5 2.3-1.3 3c-.3.3-.8.3-1.1.1l1.5 1.5c0-.3.1-.6.3-.9 1-.9 1.7-2.2 1.7-3.7s-.6-2.8-1.7-3.7c-.4-.4-.4-1-.1-1.4.4-.4 1-.4 1.4-.1C21.1 8.1 22 9.9 22 12s-.9 3.9-2.3 5.2c-.2.2-.5.3-.8.2l1.6 1.6c.4.4.4 1 0 1.4s-1 .4-1.4 0L3.5 4.9c-.4-.4-.4-1 0-1.4s1-.4 1.4 0l3.3 3.3 5-3.6c.8-.4 1.8.1 1.8 1z"/></svg>