<svg xmlns="http://www.w3.org/2000/svg" xml:space="preserve" style="enable-background:new 0 0 24 24" viewBox="0 0 24 24"><path d="M13.3 3.3c.7-.5 1.7 0 1.7.8v15.7c0 .9-.9 1.4-1.6 1l-.1-.1L6.7 16H4c-1.1 0-1.9-.8-2-1.9V10c0-1.1.8-1.9 1.9-2h2.8l6.6-4.7zm6.4 3.5C21.1 8.1 22 9.9 22 12s-.9 3.9-2.3 5.2c-.4.4-1 .3-1.4-.1s-.3-1 .1-1.4c1-.9 1.7-2.2 1.7-3.7s-.6-2.8-1.7-3.7c-.4-.4-.4-1-.1-1.4.3-.5 1-.5 1.4-.1zm-2 2.2c.8.7 1.3 1.8 1.3 3s-.5 2.3-1.3 3c-.4.4-1 .3-1.4-.1-.3-.4-.3-.9 0-1.3l.1-.1c.4-.4.7-.9.7-1.5 0-.5-.2-1-.5-1.4l-.1-.1c-.4-.4-.4-1-.1-1.4.2-.4.9-.4 1.3-.1z"/></svg>