<svg
  version="1.1"
  xmlns="http://www.w3.org/2000/svg"
  fill="currentColor"
  height="0"
  width="0">
  <!-- ## Symbols -->
  <!-- Icon close -->
  <symbol
    id="close"
    viewBox="0 0 24 24">
    <path d="m12 14.1 5.3 5.3c.6.6 1.5.6 2.1 0s.6-1.5 0-2.1L14.1 12l5.3-5.3c.6-.6.6-1.5 0-2.1s-1.5-.6-2.1 0L12 9.9 6.7 4.6c-.6-.6-1.5-.6-2.1 0s-.6 1.5 0 2.1L9.9 12l-5.3 5.3c-.6.6-.6 1.5 0 2.1s1.5.6 2.1 0l5.3-5.3z"/>
  </symbol>
  <!-- Icon check -->
  <symbol
    id="check"
    viewBox="0 0 24 24">
    <path d="M21.5,5.1c0.6,0.6,0.6,1.5,0,2.1L10.3,18.5c-0.6,0.6-1.6,0.6-2.3,0l-5.6-5.6c-0.6-0.6-0.6-1.5,0-2.1 s1.5-0.6,2.1,0l4.6,4.6L19.4,5.1C20,4.5,21,4.5,21.5,5.1z"/>
  </symbol>
  <!-- ## chevron -->
  <!-- Icon chevron up -->
  <symbol
    id="chevron-up"
    viewBox="0 0 24 24">
    <path d="M10.9 7.9c.6-.6 1.5-.6 2.1 0l5.7 5.7c.6.6.6 1.5 0 2.1s-1.5.6-2.1 0L12 11.1l-4.6 4.6c-.6.6-1.5.6-2.1 0s-.6-1.5 0-2.1l5.6-5.7z"/>
  </symbol>
  <!-- Icon chevron right -->
  <symbol
    id="chevron-right"
    viewBox="0 0 24 24">
    <path d="M16.1,10.9c0.6,0.6,0.6,1.5,0,2.1l-5.7,5.7c-0.6,0.6-1.5,0.6-2.1,0s-0.6-1.5,0-2.1l4.6-4.6L8.3,7.4c-0.6-0.6-0.6-1.5,0-2.1 s1.5-0.6,2.1,0C10.4,5.3,16.1,10.9,16.1,10.9z"/>
  </symbol>
  <!-- Icon chevron down -->
  <symbol
    id="chevron-down"
    viewBox="0 0 24 24">
    <path d="M18.7 8.3c-.6-.6-1.5-.6-2.1 0L12 12.9 7.4 8.3c-.6-.6-1.5-.6-2.1 0-.6.6-.6 1.5 0 2.1l5.7 5.7c.6.6 1.5.6 2.1 0l5.6-5.7c.6-.6.6-1.5 0-2.1z"/>
  </symbol>
  <!-- Icon chevron left -->
  <symbol
    id="chevron-left"
    viewBox="0 0 24 24">
    <path d="M7.9 13.1c-.6-.6-.6-1.5 0-2.1l5.7-5.7c.6-.6 1.5-.6 2.1 0s.6 1.5 0 2.1L11.1 12l4.6 4.6c.6.6.6 1.5 0 2.1s-1.5.6-2.1 0l-5.7-5.6z"/>
  </symbol>
  <!-- ## warning -->
  <!-- Icon warning circle -->
  <symbol
    id="warning-cicle"
    viewBox="0 0 24 24">
    <circle cx="12" cy="16" r="1"/>
    <path d="M12 6c-.6 0-1 .4-1 1v6c0 .6.4 1 1 1s1-.4 1-1V7c0-.6-.4-1-1-1z"/>
    <path d="M12 2C6.5 2 2 6.5 2 12s4.5 10 10 10 10-4.5 10-10S17.5 2 12 2zm0 18c-4.4 0-8-3.6-8-8s3.6-8 8-8 8 3.6 8 8-3.6 8-8 8z"/>
  </symbol>
  <!-- Icon warning safe -->
  <symbol
    id="warning-safe"
    viewBox="0 0 24 24">
    <circle cx="12" cy="15" r="1"/>
    <path d="M11 8v4c0 .6.4 1 1 1s1-.4 1-1V8c0-.6-.4-1-1-1s-1 .4-1 1z"/>
    <path d="m19.7 4.8-7-2.6c-.5-.2-1-.2-1.4 0l-7 2.6C3.5 5.1 3 5.9 3 6.7v5.4c0 3.4 1.9 6.5 5 8l3.4 1.7c.4.2.9.2 1.3 0l3.4-1.7c3-1.5 5-4.6 5-8V6.7c-.1-.8-.6-1.6-1.4-1.9zm-.7 7.3c0 2.7-1.5 5.1-3.9 6.3L12 19.9l-3.1-1.6C6.5 17.1 5 14.7 5 12.1V6.7l7-2.6 7 2.6v5.4z"/>
  </symbol>
  <!-- Icon info circle -->
  <symbol
    id="info-circle"
    viewBox="0 0 24 24">
    <path d="M12 2C6.5 2 2 6.5 2 12s4.5 10 10 10 10-4.5 10-10S17.5 2 12 2zm0 18c-4.4 0-8-3.6-8-8s3.6-8 8-8 8 3.6 8 8-3.6 8-8 8z"/>
    <circle cx="12" cy="8" r="1"/>
    <path d="M13 16.1V11c0-.6-.5-1-1-1h-1c-.6 0-1 .4-1 1s.4 1 1 1v5c0 .6.5 1 1 1h.5c.6 0 1-.4 1-1 0-.4-.2-.7-.5-.9z"/>
  </symbol>
  <!-- Icon add -->
  <symbol
    id="add"
    viewBox="0 0 24 24">
    <path d="M11 20c0 .6.4 1 1 1s1-.4 1-1v-7h7c.6 0 1-.4 1-1s-.4-1-1-1h-7V4c0-.6-.4-1-1-1s-1 .4-1 1v7H4c-.6 0-1 .4-1 1s.4 1 1 1h7v7z"/>
  </symbol>
  <!-- Icon add circle -->
  <symbol
    id="add-circle"
    viewBox="0 0 24 24">
    <path d="M12 2c5.5 0 10 4.5 10 10s-4.5 10-10 10S2 17.5 2 12 6.5 2 12 2zm0 5c-.5 0-.9.4-1 .9V11H8c-.6 0-1 .4-1 1 0 .5.4.9.9 1H11v3c0 .6.4 1 1 1 .5 0 .9-.4 1-.9V13h3c.6 0 1-.4 1-1 0-.5-.4-.9-.9-1H13V8c0-.6-.4-1-1-1z"/>
  </symbol>
  <!-- Icon less -->
  <symbol
    id="less"
    viewBox="0 0 24 24">
    <path d="M20 13c.6 0 1-.4 1-1s-.4-1-1-1H4c-.6 0-1 .4-1 1s.4 1 1 1h16z"/>
  </symbol>
  <!-- Icon less circle -->
  <symbol
    id="less-circle"
    viewBox="0 0 24 24">
    <path d="M12 2c5.5 0 10 4.5 10 10s-4.5 10-10 10S2 17.5 2 12 6.5 2 12 2zm4 9H8c-.6 0-1 .4-1 1s.4 1 1 1h8c.6 0 1-.4 1-1s-.4-1-1-1z"/>
  </symbol>
  <!-- ## menu -->
  <!-- Icon dots vertical -->
  <symbol
    id="dots-vertical"
    viewBox="0 0 24 24">
    <path d="M12,17c1.1,0,2,0.9,2,2s-0.9,2-2,2s-2-0.9-2-2S10.9,17,12,17z M12,10c1.1,0,2,0.9,2,2s-0.9,2-2,2s-2-0.9-2-2S10.9,10,12,10z M12,3c1.1,0,2,0.9,2,2s-0.9,2-2,2s-2-0.9-2-2S10.9,3,12,3z"/>
  </symbol>
  <!-- ## Media -->
  <!-- Icon play -->
  <symbol
    id="play"
    viewBox="0 0 24 24">
    <path d="M5.7 4.8c.1-1 1.1-1.6 2-1.2 1.1.5 3.4 1.5 6.5 3.3 3 1.7 5.1 3.3 6.1 4 .8.6.8 1.8 0 2.4-.9.7-3 2.2-6.1 4s-5.4 2.8-6.5 3.3c-.9.4-1.9-.2-2-1.2-.1-1.1-.4-3.7-.4-7.2 0-3.7.2-6.3.4-7.4z"/>
  </symbol>
  <!-- Icon pause -->
  <symbol
    id="pause"
    viewBox="0 0 24 24">
    <path d="M9 3c.6 0 1 .4 1 1v16c0 .6-.4 1-1 1H7c-.6 0-1-.4-1-1V4c0-.6.4-1 1-1h2zm8 0c.6 0 1 .4 1 1v16c0 .6-.4 1-1 1h-2c-.6 0-1-.4-1-1V4c0-.6.4-1 1-1h2z"/>
  </symbol>
  <!-- Icon stop -->
  <symbol
    id="stop"
    viewBox="0 0 24 24">
    <path d="M4 6c0-1.1.9-2 2-2h12c1.1 0 2 .9 2 2v12c0 1.1-.9 2-2 2H6c-1.1 0-2-.9-2-2V6z"/>
  </symbol>
  <!-- Icon shuffle -->
  <symbol
    id="shuffle"
    viewBox="0 0 24 24">
    <path d="M19.1 15.9c-.8-.5-1.5-.8-1.8-.9-.2-.1-.5.1-.5.3 0 .2-.1.6-.1 1-1.2 0-2.2-.7-2.7-1.7L12.6 12l1.3-2.6c.5-1 1.5-1.7 2.7-1.7 0 .5.1.9.1 1 .1.3.3.4.6.3.3-.1.9-.4 1.8-.9s1.4-.9 1.7-1.1c.2-.2.2-.5 0-.7-.3-.2-.8-.6-1.7-1.1-.8-.5-1.5-.8-1.8-.9-.2-.1-.5.1-.5.3 0 .2-.1.5-.1.9-1.9 0-3.6 1.1-4.5 2.8l-.7 1.3L10.2 7c-1-1.6-2.7-2.7-4.6-2.7H4.1c-.6 0-1 .4-1 1s.4 1 1 1h1.5c1.2 0 2.2.7 2.7 1.7l2 4-2 4c-.5 1-1.5 1.7-2.7 1.7H4.1c-.6 0-1 .4-1 1s.4 1 1 1h1.5c1.9 0 3.6-1.1 4.5-2.8l1.3-2.6.7 1.3c.9 1.7 2.6 2.8 4.5 2.8 0 .4.1.8.1.9 0 .3.3.4.5.3.3-.1.9-.4 1.8-.9.8-.5 1.4-.9 1.7-1.1.2-.2.2-.5 0-.7-.2-.1-.8-.5-1.6-1z"/>
  </symbol>
  <!-- Icon repeat -->
  <symbol
    id="repeat"
    viewBox="0 0 24 24">
    <path d="M4 14.5c.8 0 1.5-.7 1.5-1.5V9c0-.8.7-1.5 1.5-1.5h9.2c0 .5.1.9.1 1.1 0 .3.4.5.7.4.4-.2 1.2-.5 2.2-1.1 1.1-.6 1.8-1.1 2.1-1.4.3-.2.3-.6 0-.8-.3-.2-1.1-.8-2.1-1.4-1.1-.6-1.9-1-2.2-1.1-.3-.1-.7.1-.7.4 0 .2-.1.5-.1.9H7c-2.5 0-4.5 2-4.5 4.5v4c0 .8.7 1.5 1.5 1.5zm16-5c-.8 0-1.5.7-1.5 1.5v4c0 .8-.7 1.5-1.5 1.5H7.8c0-.5-.1-.9-.1-1.1 0-.3-.4-.5-.7-.4-.4.2-1.2.5-2.2 1.1-1.1.6-1.8 1.1-2.1 1.4-.3.2-.3.6 0 .8.3.2 1.1.8 2.1 1.4 1.1.6 1.9 1 2.2 1.1.3.1.7-.1.7-.4 0-.2.1-.5.1-.9H17c2.5 0 4.5-2 4.5-4.5v-4c0-.8-.7-1.5-1.5-1.5z"/>
  </symbol>
  <!-- Icon forward -->
  <symbol
    id="forward"
    viewBox="0 0 24 24">
    <path d="M19.6 5c.5 0 .8.3.8.8v12.4c0 .5-.3.8-.8.8H18c-.5 0-.8-.3-.8-.8V5.8c0-.5.4-.8.8-.8h1.6zM4 5.9c.1-.8.9-1.3 1.7-1 .9.4 2.9 1.3 5.5 2.8 2.5 1.4 4.3 2.8 5.1 3.4.7.5.7 1.5 0 2-.8.6-2.5 1.9-5.1 3.4s-4.5 2.4-5.5 2.8c-.8.3-1.6-.2-1.7-1-.1-.9-.3-3.1-.3-6.1-.1-3.2.1-5.4.3-6.3z"/>
  </symbol>
  <!-- Icon fast forward -->
  <symbol
    id="fast-forward"
    viewBox="0 0 24 24">
    <path d="M21.7 11.1c-.8-.5-2.3-1.7-4.6-3C14.7 6.7 13 6 12.2 5.6c-.7-.3-1.4.2-1.5.9-.1.5-.2 1.5-.2 2.7-.6-.3-1.2-.7-1.9-1.1C6.3 6.7 4.5 6 3.7 5.6c-.7-.3-1.4.2-1.5.9-.2.8-.3 2.8-.3 5.6 0 2.6.2 4.6.3 5.4.1.8.8 1.2 1.5.9.8-.4 2.6-1.1 4.9-2.5.7-.4 1.3-.8 1.9-1.1.1 1.3.2 2.2.2 2.7.1.8.8 1.2 1.5.9.8-.4 2.6-1.1 4.9-2.5s3.9-2.5 4.6-3c.6-.4.6-1.4 0-1.8z"/>
  </symbol>
  <!-- Icon backward -->
  <symbol
    id="backward"
    viewBox="0 0 24 24">
    <path d="M4.5 19.2c-.5 0-.8-.3-.8-.8V6c0-.5.3-.8.8-.8h1.6c.5 0 .8.3.8.8v12.4c0 .5-.4.8-.8.8H4.5zm15.6-.9c-.1.8-.9 1.3-1.7 1-.9-.4-2.9-1.3-5.5-2.8-2.5-1.4-4.3-2.8-5.1-3.4-.7-.5-.7-1.5 0-2 .8-.6 2.5-1.9 5.1-3.4s4.5-2.4 5.5-2.8c.8-.3 1.6.2 1.7 1 .1.9.3 3.1.3 6.1.1 3.2-.1 5.4-.3 6.3z"/>
  </symbol>
  <!-- Icon fast backward -->
  <symbol
    id="fast-backward"
    viewBox="0 0 24 24">
    <path d="M12.6 23.3h-.2v.4l.1.1.1-.1v-.4zm.3-.2-.2.1v.4l.2.1v-.6c0 .1 0 0 0 0zm-.8 0-.1.6.2-.1v-.4l-.1-.1z" style="fill:none"/><path d="M2.3 12.9c.8.5 2.3 1.7 4.6 3 2.3 1.4 4.1 2.1 4.9 2.5.7.3 1.4-.2 1.5-.9.1-.5.2-1.4.2-2.7.6.4 1.2.7 1.9 1.1 2.3 1.4 4.1 2.1 4.9 2.5.7.3 1.4-.2 1.5-.9.2-.8.3-2.8.3-5.6 0-2.6-.2-4.6-.3-5.4-.1-.8-.8-1.2-1.5-.9-.8.4-2.6 1.1-4.9 2.5-.7.4-1.3.8-1.9 1.1 0-1.2-.1-2.2-.2-2.7-.1-.8-.8-1.2-1.5-.9-.8.4-2.5 1.1-4.9 2.5s-3.9 2.5-4.6 3c-.6.4-.6 1.4 0 1.8z"/>
  </symbol>
  <!-- Icon volume -->
  <symbol
    id="volume"
    viewBox="0 0 24 24">
    <path d="M13.3 3.3c.7-.5 1.7 0 1.7.8v15.7c0 .9-.9 1.4-1.6 1l-.1-.1L6.7 16H4c-1.1 0-1.9-.8-2-1.9V10c0-1.1.8-1.9 1.9-2h2.8l6.6-4.7zm6.4 3.5C21.1 8.1 22 9.9 22 12s-.9 3.9-2.3 5.2c-.4.4-1 .3-1.4-.1s-.3-1 .1-1.4c1-.9 1.7-2.2 1.7-3.7s-.6-2.8-1.7-3.7c-.4-.4-.4-1-.1-1.4.3-.5 1-.5 1.4-.1zm-2 2.2c.8.7 1.3 1.8 1.3 3s-.5 2.3-1.3 3c-.4.4-1 .3-1.4-.1-.3-.4-.3-.9 0-1.3l.1-.1c.4-.4.7-.9.7-1.5 0-.5-.2-1-.5-1.4l-.1-.1c-.4-.4-.4-1-.1-1.4.2-.4.9-.4 1.3-.1z"/>
  </symbol>
  <!-- Icon volume down -->
  <symbol
    id="volume-down"
    viewBox="0 0 24 24">
    <path d="M13.3 3.3c.7-.5 1.7 0 1.7.8v15.7c0 .9-.9 1.4-1.6 1l-.1-.1L6.7 16H4c-1.1 0-1.9-.8-2-1.9V10c0-1.1.8-1.9 1.9-2h2.8l6.6-4.7zM17.7 9c.8.7 1.3 1.8 1.3 3s-.5 2.3-1.3 3c-.4.4-1 .3-1.4-.1-.3-.4-.3-.9 0-1.3l.1-.1c.4-.4.7-.9.7-1.5 0-.5-.2-1-.5-1.4l-.1-.1c-.4-.4-.4-1-.1-1.4.2-.4.9-.4 1.3-.1z"/>
  </symbol>
  <!-- Icon volume zero -->
  <symbol
    id="volume-zero"
    viewBox="0 0 24 24">
    <path d="M13.3 3.3c.7-.5 1.7 0 1.7.8v15.7c0 .9-.9 1.4-1.6 1l-.1-.1L6.7 16H4c-1.1 0-1.9-.8-2-1.9V10c0-1.1.8-1.9 1.9-2h2.8l6.6-4.7z"/>
  </symbol>
  <!-- Icon volume off -->
  <symbol
    id="volume-off"
    viewBox="0 0 24 24">
    <path d="M13.3 3.3c.7-.5 1.7 0 1.7.8v15.7c0 .9-.9 1.4-1.6 1l-.1-.1L6.7 16H4c-1.1 0-1.9-.8-2-1.9V10c0-1.1.8-1.9 1.9-2h2.8l6.6-4.7zm4.3 5.9 1.4 1.4 1.4-1.4c.4-.4 1-.4 1.4 0s.4 1 0 1.4L20.4 12l1.4 1.4c.4.4.4 1 0 1.4s-1 .4-1.4 0L19 13.4l-1.4 1.4c-.4.4-1 .4-1.4 0s-.4-1 0-1.4l1.4-1.4-1.4-1.4c-.4-.4-.4-1 0-1.4s1-.4 1.4 0z"/>
  </symbol>
  <!-- Icon volume mute -->
  <symbol
    id="volume-mute"
    viewBox="0 0 24 24">
    <path d="M4.6 8 15 18.4v1.4c0 .9-1 1.4-1.7.9L6.7 16H4c-1.1 0-2-.9-2-2v-4c0-1.1.9-2 2-2h.6zM15 4.2v9.4l1.1 1.1c-.2-.4-.1-.8.1-1.1l.1-.1c.4-.4.7-.9.7-1.5 0-.5-.2-1-.5-1.4l-.1-.1c-.4-.4-.4-1-.1-1.4.4-.4 1-.4 1.4-.1.8.7 1.3 1.8 1.3 3s-.5 2.3-1.3 3c-.3.3-.8.3-1.1.1l1.5 1.5c0-.3.1-.6.3-.9 1-.9 1.7-2.2 1.7-3.7s-.6-2.8-1.7-3.7c-.4-.4-.4-1-.1-1.4.4-.4 1-.4 1.4-.1C21.1 8.1 22 9.9 22 12s-.9 3.9-2.3 5.2c-.2.2-.5.3-.8.2l1.6 1.6c.4.4.4 1 0 1.4s-1 .4-1.4 0L3.5 4.9c-.4-.4-.4-1 0-1.4s1-.4 1.4 0l3.3 3.3 5-3.6c.8-.4 1.8.1 1.8 1z"/>
  </symbol>
  <!-- Icon play list -->
  <symbol
    id="play-list"
    viewBox="0 0 24 24">
    <path d="m17.3 4.1 3 1c.5.2.8.7.6 1.3-.2.5-.7.8-1.3.6L18 6.4v11.1c0 1.9-1.6 3.5-3.5 3.5S11 19.4 11 17.5s1.6-3.5 3.5-3.5c.5 0 1 .1 1.5.3V5c0-.7.7-1.2 1.3-.9zM8 17c.6 0 1 .4 1 1s-.4 1-1 1H4c-.6 0-1-.4-1-1s.4-1 1-1h4zM10 11c.6 0 1 .4 1 1s-.4 1-1 1H4c-.6 0-1-.4-1-1s.4-1 1-1h6zM13 5c.6 0 1 .4 1 1 0 .5-.4.9-.9 1H4c-.6 0-1-.4-1-1 0-.5.4-.9.9-1H13z"/>
  </symbol>
</svg>


