<svg
  version="1.1"
  xmlns="http://www.w3.org/2000/svg"
  fill="currentColor"
  height="0"
  width="0">
  <!-- Icon close -->
  <symbol
    id="close"
    viewBox="0 0 24 24">
    <path d="M12,14.1l5.3,5.3c0.6,0.6,1.5,0.6,2.1,0s0.6-1.5,0-2.1L14.1,12l5.3-5.3c0.6-0.6,0.6-1.5,0-2.1s-1.5-0.6-2.1,0
	L12,9.9L6.7,4.6C6.1,4,5.2,4,4.6,4.6S4,6.1,4.6,6.7L9.9,12l-5.3,5.3c-0.6,0.6-0.6,1.5,0,2.1s1.5,0.6,2.1,0C6.7,19.4,12,14.1,12,14.1z"/>
  </symbol>
  <!-- Icon check -->
  <symbol
    id="check"
    viewBox="0 0 24 24">
    <path d="M21.5,5.1c0.6,0.6,0.6,1.5,0,2.1L10.3,18.5c-0.6,0.6-1.6,0.6-2.3,0l-5.6-5.6c-0.6-0.6-0.6-1.5,0-2.1
	s1.5-0.6,2.1,0l4.6,4.6L19.4,5.1C20,4.5,21,4.5,21.5,5.1z"/>
  </symbol>
  <!-- Icon chevron down -->
  <symbol
    id="chevron-down"
    viewBox="0 0 24 24">
    <path d="M18.7,8.3c-0.6-0.6-1.5-0.6-2.1,0L12,12.9L7.4,8.3c-0.6-0.6-1.5-0.6-2.1,0c-0.6,0.6-0.6,1.5,0,2.1l5.7,5.7
	c0.6,0.6,1.5,0.6,2.1,0l5.6-5.7C19.3,9.8,19.3,8.9,18.7,8.3z"/>
  </symbol>
  <!-- Icon warning circle -->
  <symbol
    id="warning-cicle"
    viewBox="0 0 24 24">
    <circle cx="12" cy="16" r="1"/>
    <path d="M12 6c-.6 0-1 .4-1 1v6c0 .6.4 1 1 1s1-.4 1-1V7c0-.6-.4-1-1-1z"/>
    <path d="M12 2C6.5 2 2 6.5 2 12s4.5 10 10 10 10-4.5 10-10S17.5 2 12 2zm0 18c-4.4 0-8-3.6-8-8s3.6-8 8-8 8 3.6 8 8-3.6 8-8 8z"/>
  </symbol>
  <!-- Icon warning safe -->
  <symbol
    id="warning-safe"
    viewBox="0 0 24 24">
    <circle cx="12" cy="15" r="1"/>
    <path d="M11 8v4c0 .6.4 1 1 1s1-.4 1-1V8c0-.6-.4-1-1-1s-1 .4-1 1z"/>
    <path d="m19.7 4.8-7-2.6c-.5-.2-1-.2-1.4 0l-7 2.6C3.5 5.1 3 5.9 3 6.7v5.4c0 3.4 1.9 6.5 5 8l3.4 1.7c.4.2.9.2 1.3 0l3.4-1.7c3-1.5 5-4.6 5-8V6.7c-.1-.8-.6-1.6-1.4-1.9zm-.7 7.3c0 2.7-1.5 5.1-3.9 6.3L12 19.9l-3.1-1.6C6.5 17.1 5 14.7 5 12.1V6.7l7-2.6 7 2.6v5.4z"/>
  </symbol>
  <!-- Icon info circle -->
  <symbol
    id="info-circle"
    viewBox="0 0 24 24">
    <path d="M12 2C6.5 2 2 6.5 2 12s4.5 10 10 10 10-4.5 10-10S17.5 2 12 2zm0 18c-4.4 0-8-3.6-8-8s3.6-8 8-8 8 3.6 8 8-3.6 8-8 8z"/>
    <circle cx="12" cy="8" r="1"/>
    <path d="M13 16.1V11c0-.6-.5-1-1-1h-1c-.6 0-1 .4-1 1s.4 1 1 1v5c0 .6.5 1 1 1h.5c.6 0 1-.4 1-1 0-.4-.2-.7-.5-.9z"/>
  </symbol>
  <!-- Icon dots vertical -->
  <symbol
    id="dots-vertical"
    viewBox="0 0 24 24">
    <path d="M12.6 23.3h-.2v.4l.1.1.1-.1v-.4zm.3-.2-.2.1v.4l.2.1v-.6c0 .1 0 0 0 0zm-.8 0-.1.6.2-.1v-.4l-.1-.1z"/>
    <path d="M12 17c1.1 0 2 .9 2 2s-.9 2-2 2-2-.9-2-2 .9-2 2-2zm0-7c1.1 0 2 .9 2 2s-.9 2-2 2-2-.9-2-2 .9-2 2-2zm0-7c1.1 0 2 .9 2 2s-.9 2-2 2-2-.9-2-2 .9-2 2-2z"/>
  </symbol>
</svg>


